<?xml version="1.0" encoding="utf-8"?>
<!-- Generator: Adobe Illustrator 23.0.1, SVG Export Plug-In . SVG Version: 6.00 Build 0)  -->
<svg version="1.1" id="svg5" xmlns="http://www.w3.org/2000/svg" xmlns:xlink="http://www.w3.org/1999/xlink" x="0px" y="0px"
	 viewBox="0 0 551.2 100.8" style="enable-background:new 0 0 551.2 100.8;" xml:space="preserve">
<g id="logo-group">
	<g id="title">
		<path id="path13" d="M65.2,46.4H0v6.5h65.2V46.4z M65.2,0H0v6.6h65.2V0z M0,94.2v6.6h65.2v-6.6H0z"/>
		<path id="path15" d="M235.8,0h-7.2l-31,90.9L166.3,0h-7.1l-31.5,90.7L97,0h-7.8l34.3,100.8h7.8l31.4-90.4l31.2,90.4h7.8L235.8,0z"
			/>
		<path id="path17" d="M328.1,46.4h-65.2v6.5h65.2V46.4z M328.1,0h-65.2v6.6h65.2V0z M262.9,94.2v6.6h65.2v-6.6H262.9z"/>
		<path id="path19" d="M402.2,0h-7.3l-46.4,100.8h7.9l42-92.7l42.2,92.7h7.9L402.2,0z"/>
		<path id="path21" d="M526,65.5c7.5-2.2,13.4-5.9,17.4-11.4s6.2-12.1,6.2-20.2c0-10.5-3.6-18.9-10.8-24.9C531.6,3,521.7,0,509,0
			h-36.1v6.6H509c10.7,0,18.9,2.4,24.6,7.2c5.6,4.8,8.5,11.5,8.5,20.2c0,8.8-2.9,15.6-8.5,20.3c-5.8,4.8-14,7.1-24.6,7.1h-36.1v39.5
			h7.3v-33H509c2.9,0,6.2-0.1,9.8-0.7l24,33.7h8.4L526,65.5z"/>
	</g>
</g>
</svg>
