<svg class="err" version="1.1" id="Layer_1" xmlns="http://www.w3.org/2000/svg" xmlns:xlink="http://www.w3.org/1999/xlink" x="0px" y="0px"
	 viewBox="0 0 1357 739" style="enable-background:new 0 0 1357 739;" xml:space="preserve">
<style type="text/css">
	.st0{display:none;}
	.st1{display:inline;fill:#FF0000;}
	.st2{fill:#020200;}
	.st3{clip-path:url(#SVGID_2_);fill:url(#SVGID_3_);}
</style>
<g class="st0">
	<polygon class="st1" points="192,161 189.66,175.66 189.66,175.66 175,178 189.66,180.34 189.66,180.34 192,195 194.34,180.34 
		209,178 194.34,175.66 	"/>
	<polygon class="st1" points="1054,0 1051.66,14.66 1051.66,14.66 1037,17 1051.66,19.34 1051.66,19.34 1054,34 1056.34,19.34 
		1071,17 1056.34,14.66 	"/>
	<polygon class="st1" points="1262,269 1259.66,283.66 1259.66,283.66 1245,286 1259.66,288.34 1259.66,288.34 1262,303 
		1264.34,288.34 1279,286 1264.34,283.66 	"/>
	<path class="st1" d="M1330,56c-7.73,0-14,6.27-14,14s6.27,14,14,14s14-6.27,14-14S1337.73,56,1330,56z M1330,76c-3.31,0-6-2.69-6-6
		s2.69-6,6-6s6,2.69,6,6S1333.31,76,1330,76z"/>
	<path class="st1" d="M70,18c-7.73,0-14,6.27-14,14s6.27,14,14,14s14-6.27,14-14S77.73,18,70,18z M70,38c-3.31,0-6-2.69-6-6
		s2.69-6,6-6s6,2.69,6,6S73.31,38,70,38z"/>
	<path class="st1" d="M18.5,392C8.28,392,0,400.28,0,410.5S8.28,429,18.5,429S37,420.72,37,410.5S28.72,392,18.5,392z M18.5,418.43
		c-4.38,0-7.93-3.55-7.93-7.93s3.55-7.93,7.93-7.93s7.93,3.55,7.93,7.93S22.88,418.43,18.5,418.43z"/>
	<path class="st1" d="M1272,572h-86h-5.88H1162c-7.18,0-13-5.82-13-13s5.82-13,13-13h21.81h2.19h20c7.18,0,13-5.82,13-13
		s-5.82-13-13-13h-19.92c0.6-9.92,0.92-19.93,0.92-30c0-95.6-27.56-184.77-75.15-260H1140c7.18,0,13-5.82,13-13s-5.82-13-13-13h-17
		h-28.79H1052c-7.18,0-13-5.82-13-13s5.82-13,13-13h21.94c-0.01-0.02-0.02-0.03-0.04-0.05c6.76-0.46,12.1-6.08,12.1-12.95
		c0-7.18-5.82-13-13-13h-22.4H1013c-7.18,0-13-5.82-13-13s5.82-13,13-13h10.54H1058c7.18,0,13-5.82,13-13s-5.82-13-13-13h-66.29
		C910.4,39.08,809.42,3,700,3C534.38,3,388.08,85.67,300.1,212h-32.6c-7.46,0-13.5,6.04-13.5,13.5c0,7.46,6.04,13.5,13.5,13.5h15.09
		h33.91c7.46,0,13.5,6.04,13.5,13.5c0,7.46-6.04,13.5-13.5,13.5h-49.03H256h-32.5c-7.46,0-13.5,6.04-13.5,13.5
		c0,7.46,6.04,13.5,13.5,13.5h2.5h28.5h12c7.46,0,13.5,6.04,13.5,13.5c0,7.46-6.04,13.5-13.5,13.5h-22.99
		C223.79,372.93,213,430.2,213,490c0,35.69,3.84,70.49,11.13,104H203.5c-7.46,0-13.5,6.04-13.5,13.5c0,7.46,6.04,13.5,13.5,13.5h4.5
		h22.83h11.67c7.46,0,13.5,6.04,13.5,13.5c0,7.46-6.04,13.5-13.5,13.5h-3.29H208h-33.5c-7.46,0-13.5,6.04-13.5,13.5
		c0,7.46,6.04,13.5,13.5,13.5H194h55.37h29.13c7.46,0,13.5,6.04,13.5,13.5c0,7.46-6.04,13.5-13.5,13.5h-17.05H221.5
		c-7.46,0-13.5,6.04-13.5,13.5c0,7.46,6.04,13.5,13.5,13.5h54.09c1.9,3.36,3.85,6.69,5.82,10h837.19
		c25.71-43.14,44.95-90.58,56.37-141H1272c7.18,0,13-5.82,13-13S1279.18,572,1272,572z"/>
</g>
<g>
	<path class="st2" d="M1352.12,739h-87.23c-2.7,0-4.88-2.19-4.88-4.88v-0.23c0-2.7,2.19-4.88,4.88-4.88h87.23
		c2.7,0,4.88,2.19,4.88,4.88v0.23C1357,736.81,1354.81,739,1352.12,739z"/>
	<path class="st2" d="M1217.12,739h-97.23c-2.7,0-4.88-2.19-4.88-4.88v-0.23c0-2.7,2.19-4.88,4.88-4.88h97.23
		c2.7,0,4.88,2.19,4.88,4.88v0.23C1222,736.81,1219.81,739,1217.12,739z"/>
	<path class="st2" d="M295,739h-97c-2.76,0-5-2.24-5-5l0,0c0-2.76,2.24-5,5-5h97c2.76,0,5,2.24,5,5l0,0
		C300,736.76,297.76,739,295,739z"/>
	<path class="st2" d="M162,739h-30c-2.76,0-5-2.24-5-5l0,0c0-2.76,2.24-5,5-5h30c2.76,0,5,2.24,5,5l0,0
		C167,736.76,164.76,739,162,739z"/>
	<path class="st2" d="M117,739H75c-2.76,0-5-2.24-5-5l0,0c0-2.76,2.24-5,5-5h42c2.76,0,5,2.24,5,5l0,0
		C122,736.76,119.76,739,117,739z"/>
	<circle class="st2" cx="180" cy="734" r="5"/>
	<circle class="st2" cx="1242" cy="734" r="5"/>
</g>
<g>
	<defs>
		<path id="SVGID_1_" d="M194.34,175.66L209,178l-14.66,2.34L192,195l-2.34-14.66v0L175,178l14.66-2.34v0L192,161L194.34,175.66z
			 M1054,0l-2.34,14.66v0L1037,17l14.66,2.34v0L1054,34l2.34-14.66L1071,17l-14.66-2.34L1054,0z M1262,269l-2.34,14.66v0L1245,286
			l14.66,2.34l0,0L1262,303l2.34-14.66L1279,286l-14.66-2.34L1262,269z M1344,70c0,7.73-6.27,14-14,14s-14-6.27-14-14s6.27-14,14-14
			S1344,62.27,1344,70z M1336,70c0-3.31-2.69-6-6-6s-6,2.69-6,6s2.69,6,6,6S1336,73.31,1336,70z M84,32c0,7.73-6.27,14-14,14
			s-14-6.27-14-14s6.27-14,14-14S84,24.27,84,32z M76,32c0-3.31-2.69-6-6-6s-6,2.69-6,6s2.69,6,6,6S76,35.31,76,32z M37,410.5
			c0,10.22-8.28,18.5-18.5,18.5S0,420.72,0,410.5S8.28,392,18.5,392S37,400.28,37,410.5z M26.43,410.5c0-4.38-3.55-7.93-7.93-7.93
			s-7.93,3.55-7.93,7.93s3.55,7.93,7.93,7.93S26.43,414.88,26.43,410.5z M1272,572h-86h-5.88H1162c-7.18,0-13-5.82-13-13
			s5.82-13,13-13h21.81h2.19h20c7.18,0,13-5.82,13-13s-5.82-13-13-13h-19.92c0.6-9.92,0.92-19.93,0.92-30
			c0-95.6-27.56-184.77-75.15-260H1140c7.18,0,13-5.82,13-13s-5.82-13-13-13h-17h-28.79H1052c-7.18,0-13-5.82-13-13s5.82-13,13-13
			h21.94c-0.01-0.02-0.02-0.03-0.04-0.05c6.76-0.46,12.1-6.08,12.1-12.95c0-7.18-5.82-13-13-13h-22.4H1013c-7.18,0-13-5.82-13-13
			s5.82-13,13-13h10.54H1058c7.18,0,13-5.82,13-13s-5.82-13-13-13h-66.29C910.4,39.08,809.42,3,700,3
			C534.38,3,388.08,85.67,300.1,212h-32.6c-7.46,0-13.5,6.04-13.5,13.5c0,7.46,6.04,13.5,13.5,13.5h15.09h33.91
			c7.46,0,13.5,6.04,13.5,13.5c0,7.46-6.04,13.5-13.5,13.5h-49.03H256h-32.5c-7.46,0-13.5,6.04-13.5,13.5
			c0,7.46,6.04,13.5,13.5,13.5h2.5h28.5h12c7.46,0,13.5,6.04,13.5,13.5c0,7.46-6.04,13.5-13.5,13.5h-22.99
			C223.79,372.93,213,430.2,213,490c0,35.69,3.84,70.49,11.13,104H203.5c-7.46,0-13.5,6.04-13.5,13.5c0,7.46,6.04,13.5,13.5,13.5
			h4.5h22.83h11.67c7.46,0,13.5,6.04,13.5,13.5c0,7.46-6.04,13.5-13.5,13.5h-3.29H208h-33.5c-7.46,0-13.5,6.04-13.5,13.5
			c0,7.46,6.04,13.5,13.5,13.5H194h55.37h29.13c7.46,0,13.5,6.04,13.5,13.5c0,7.46-6.04,13.5-13.5,13.5h-17.05H221.5
			c-7.46,0-13.5,6.04-13.5,13.5c0,7.46,6.04,13.5,13.5,13.5h54.09c1.9,3.36,3.85,6.69,5.82,10h837.19
			c25.71-43.14,44.95-90.58,56.37-141H1272c7.18,0,13-5.82,13-13S1279.18,572,1272,572z"/>
	</defs>
	<clipPath id="SVGID_2_">
		<use xlink:href="#SVGID_1_"  style="overflow:visible;"/>
	</clipPath>
	<linearGradient id="SVGID_3_" gradientUnits="userSpaceOnUse" x1="700" y1="739" x2="700" y2="-64">
		<stop  offset="0" style="stop-color:#B92B27"/>
		<stop  offset="0.3783" style="stop-color:#7E405E"/>
		<stop  offset="1" style="stop-color:#1565C0"/>
	</linearGradient>
	<rect x="-260" y="-64" class="st3" width="1920" height="803"/>
</g>
</svg>
